<svg xmlns="http://www.w3.org/2000/svg" width="30" height="30" viewBox="0 0 30 30">
  <g id="Group_2" data-name="Group 2" transform="translate(-258 -294)">
    <path id="entypo-social--twitter-with-circle_1_" data-name="entypo-social--twitter-with-circle (1)" d="M15.4.4a15,15,0,1,0,15,15,15,15,0,0,0-15-15m6.1,12.287q.008.192.008.381a8.4,8.4,0,0,1-12.933,7.08,5.811,5.811,0,0,0,.7.039c1.384,0,9.372,2.791,10.383,2-1.263-.025-9.085-4.11-9.474-5.312a2.969,2.969,0,0,0,1.333-.052c-1.379-.278-3.261-4.14-3.26-5.547v7.11c.4.22-1.526,1.787-1.042,1.8-1.3-.866,8.345,3.041,9.133,1.691,1.5,1.845-6.482-3.077-4.107-2.955-.307-1.3,2.239,3.185,3.42,2.553s-1.553-1.863-.639-.885c.661-.131-.208,1.937.371,1.594-.22.685,2.92-.676,2.3-.306.586-.071-2.575-.163-2.036-.4-.4.594,6.783-1.706,6.2-1.289" transform="translate(257.6 293.6)"/>
    <path id="mdi-light--email" d="M5,5H18a3,3,0,0,1,3,3v9a3,3,0,0,1-3,3H5a3,3,0,0,1-3-3V8A3,3,0,0,1,5,5M5,6a1.9,1.9,0,0,0-1.28.47L11.5,11.5l7.78-5.03A1.9,1.9,0,0,0,18,6Zm6.5,6.71L3.13,7.28A2.138,2.138,0,0,0,3,8v9a2,2,0,0,0,2,2H18a2,2,0,0,0,2-2V8a2.138,2.138,0,0,0-.13-.72Z" transform="translate(262 297)" fill="#fff"/>
  </g>
</svg>
