<svg xmlns="http://www.w3.org/2000/svg" width="30" height="30" viewBox="0 0 30 30">
  <g id="logos--facebook" transform="translate(39.75)">
    <path id="Path_1" data-name="Path 1" d="M30,14.309C30,6.407,23.284,0,15,0S0,6.407,0,14.309A14.538,14.538,0,0,0,12.656,28.445v-10H8.848V14.309h3.809V11.157c0-3.586,2.239-5.567,5.666-5.567a24.146,24.146,0,0,1,3.358.279V9.391H19.788c-1.863,0-2.445,1.1-2.445,2.235v2.684H21.5l-.665,4.136h-3.5v10A14.538,14.538,0,0,0,30,14.309" transform="translate(-39.75)" fill="#1877f2"/>
    <path id="Path_2" data-name="Path 2" d="M103.534,50h0Z" transform="translate(-115.25 -20)" fill="#fff"/>
  </g>
</svg>
