<svg xmlns="http://www.w3.org/2000/svg" width="30" height="30" viewBox="0 0 30 30">
  <g id="Group_1" data-name="Group 1" transform="translate(-358 -294)">
    <path id="entypo-social--twitter-with-circle_1_" data-name="entypo-social--twitter-with-circle (1)" d="M15.4.4a15,15,0,1,0,15,15,15,15,0,0,0-15-15m6.1,12.287q.008.192.008.381a8.4,8.4,0,0,1-12.933,7.08,5.811,5.811,0,0,0,.7.039c1.384,0,9.372,2.791,10.383,2-1.263-.025-9.085-4.11-9.474-5.312a2.969,2.969,0,0,0,1.333-.052c-1.379-.278-3.261-4.14-3.26-5.547v7.11c.4.22-1.526,1.787-1.042,1.8-1.3-.866,8.345,3.041,9.133,1.691,1.5,1.845-6.482-3.077-4.107-2.955-.307-1.3,2.239,3.185,3.42,2.553s-1.553-1.863-.639-.885c.661-.131-.208,1.937.371,1.594-.22.685,2.92-.676,2.3-.306.586-.071-2.575-.163-2.036-.4-.4.594,6.783-1.706,6.2-1.289" transform="translate(357.6 293.6)"/>
    <path id="hugeicons--new-twitter" d="M3,21l7.548-7.548M21,3l-7.548,7.548m0,0L8,3H3l7.548,10.452m2.9-2.9L21,21H16l-5.452-7.548" transform="translate(361.5 297.5)" fill="none" stroke="#fff" stroke-linecap="round" stroke-linejoin="round" stroke-width="1.5"/>
  </g>
</svg>
