<svg xmlns="http://www.w3.org/2000/svg" width="30" height="30" viewBox="0 0 30 30">
  <path id="garden--whatsapp-fill-12" d="M15,0A15,15,0,1,1,7.5,27.99L1.645,29.935a1.25,1.25,0,0,1-1.58-1.58l1.95-5.847A15,15,0,0,1,15,0M9.831,7.507a1.3,1.3,0,0,0-.985.5,4.6,4.6,0,0,0-1.29,3.312,8.053,8.053,0,0,0,1.508,4.115c.183.26,2.6,4.275,6.306,6a20.184,20.184,0,0,0,2.1.837,4.8,4.8,0,0,0,2.33.16,3.8,3.8,0,0,0,2.49-1.892,3.563,3.563,0,0,0,.213-1.887c-.093-.165-.338-.267-.71-.47q-1.245-.675-2.52-1.29c-.338-.135-.585-.2-.83.2s-.95,1.295-1.168,1.56-.43.295-.8.1a9.925,9.925,0,0,1-2.968-1.975,11.75,11.75,0,0,1-2.05-2.755.6.6,0,0,1,.158-.812c.168-.175.37-.462.555-.7a2.623,2.623,0,0,0,.37-.66.778.778,0,0,0-.033-.695c-.093-.2-.83-2.16-1.14-2.957-.3-.775-.6-.665-.83-.68-.213-.01-.458-.01-.705-.01" transform="translate(0)" fill="#1faf38"/>
</svg>
